<!-- Generator: Adobe Illustrator 19.0.1, SVG Export Plug-In  -->
<svg version="1.1"
	 xmlns="http://www.w3.org/2000/svg" xmlns:xlink="http://www.w3.org/1999/xlink" xmlns:a="http://ns.adobe.com/AdobeSVGViewerExtensions/3.0/"
	 x="0px" y="0px" width="106.9px" height="106.9px" viewBox="0 0 106.9 106.9" style="enable-background:new 0 0 106.9 106.9;"
	 xml:space="preserve">
<style type="text/css">
	.st0{opacity:0.5;fill:url(#SVGID_1_);}
	.st1{fill:url(#SVGID_2_);}
	.st2{fill:url(#SVGID_3_);}
	.st3{opacity:0.5;fill:url(#SVGID_4_);}
	.st4{fill:url(#SVGID_5_);}
	.st5{fill:url(#SVGID_6_);}
</style>
<defs>
</defs>
<g>
	<g>
		
			<linearGradient id="SVGID_1_" gradientUnits="userSpaceOnUse" x1="806.4235" y1="1240.0492" x2="889.8567" y2="1240.0492" gradientTransform="matrix(0.7071 0.7071 -0.7071 0.7071 330.5847 -1423.0939)">
			<stop  offset="0" style="stop-color:#EC1C24"/>
			<stop  offset="1" style="stop-color:#2B388F"/>
		</linearGradient>
		<path class="st0" d="M62.9,103c-5.2,5.2-13.7,5.2-18.9,0L3.9,62.9c-5.2-5.2-5.2-13.7,0-18.9L44,3.9c5.2-5.2,13.7-5.2,18.9,0
			L103,44c5.2,5.2,5.2,13.7,0,18.9L62.9,103z"/>
		<g>
			<linearGradient id="SVGID_2_" gradientUnits="userSpaceOnUse" x1="8.9868" y1="53.5269" x2="70.6207" y2="53.5269">
				<stop  offset="0" style="stop-color:#CCE0F4"/>
				<stop  offset="6.405089e-02" style="stop-color:#C3DCF2"/>
				<stop  offset="0.1706" style="stop-color:#A9D2EE"/>
				<stop  offset="0.3066" style="stop-color:#80C2E7"/>
				<stop  offset="0.4649" style="stop-color:#47ACDE"/>
				<stop  offset="0.5674" style="stop-color:#1E9CD7"/>
				<stop  offset="0.8652" style="stop-color:#0075BE"/>
				<stop  offset="0.9944" style="stop-color:#005B97"/>
			</linearGradient>
			<path class="st1" d="M66.4,63.8c-6,6-12,12-18,18c-3.5,3.5-7.1,7.1-10.6,10.6c-3.4,3.4-7.6,6.3-12.7,6.5C16.8,99.3,9,92.5,9,84.2
				c0-2.7,0-5.3,0-8C9,65,9,53.8,9,42.6c0-4.8,0-9.7,0-14.5c0-2.4,0.7-4.9,1-7.3c1.3-10.2,12.8-15.5,21.8-11
				c2.9,1.6,5.4,4.3,7.7,6.6c7.2,7.2,14.5,14.4,21.7,21.6c1.7,1.7,3.5,3.5,5.3,5.2C72,48.8,72,58.2,66.4,63.8z"/>
			<linearGradient id="SVGID_3_" gradientUnits="userSpaceOnUse" x1="45.7112" y1="53.4016" x2="129.9822" y2="53.4016">
				<stop  offset="0" style="stop-color:#00AB4E"/>
				<stop  offset="4.720941e-03" style="stop-color:#09AC4C"/>
				<stop  offset="3.711008e-02" style="stop-color:#41B23D"/>
				<stop  offset="7.046827e-02" style="stop-color:#73B830"/>
				<stop  offset="0.1041" style="stop-color:#9EBC25"/>
				<stop  offset="0.138" style="stop-color:#C0C01C"/>
				<stop  offset="0.1723" style="stop-color:#DBC315"/>
				<stop  offset="0.2071" style="stop-color:#EEC510"/>
				<stop  offset="0.2428" style="stop-color:#F9C70D"/>
				<stop  offset="0.2809" style="stop-color:#FDC70C"/>
				<stop  offset="0.6685" style="stop-color:#F3903F"/>
				<stop  offset="0.8876" style="stop-color:#503293"/>
			</linearGradient>
			<path class="st2" d="M40.5,43.2c6-6,12-12,18-18c3.5-3.5,7.1-7.1,10.6-10.6c3.4-3.4,6.1-6.3,11.3-6.5C88.7,7.6,95,14.4,95,22.7
				c0,2.7,0,5.3,0,8c0,11.2,0,22.5,0,33.7c0,4.8,0,9.7,0,14.5c0,2.4,0.8,4.9,0.5,7.3c-1.3,10.2-12.1,15.5-21.1,11
				c-2.9-1.6-5-4.3-7.3-6.6C59.9,83.4,52.8,76.2,45.6,69c-1.7-1.7-3.4-3.5-5.2-5.2C34.8,58.2,34.9,48.8,40.5,43.2z"/>
		</g>
	</g>
</g>
</svg>
