<!-- Generator: Adobe Illustrator 19.0.1, SVG Export Plug-In  -->
<svg version="1.1"
	 xmlns="http://www.w3.org/2000/svg" xmlns:xlink="http://www.w3.org/1999/xlink" xmlns:a="http://ns.adobe.com/AdobeSVGViewerExtensions/3.0/"
	 x="0px" y="0px" width="119.7px" height="119.7px" viewBox="0 0 119.7 119.7" style="enable-background:new 0 0 119.7 119.7;"
	 xml:space="preserve">
<style type="text/css">
	.st0{opacity:0.5;fill:url(#SVGID_1_);}
	.st1{fill:#FFFFFF;}
	.st2{opacity:0.5;fill:url(#SVGID_2_);}
</style>
<defs>
</defs>
<g>
	
		<linearGradient id="SVGID_1_" gradientUnits="userSpaceOnUse" x1="655.4208" y1="1309.5718" x2="748.8337" y2="1309.5718" gradientTransform="matrix(0.7071 0.7071 -0.7071 0.7071 489.3843 -1362.6127)">
		<stop  offset="0" style="stop-color:#EC1C24"/>
		<stop  offset="1" style="stop-color:#2B388F"/>
	</linearGradient>
	<path class="st0" d="M70.4,115.3c-5.8,5.8-15.3,5.8-21.1,0L4.4,70.4c-5.8-5.8-5.8-15.3,0-21.1L49.3,4.4c5.8-5.8,15.3-5.8,21.1,0
		l44.9,44.9c5.8,5.8,5.8,15.3,0,21.1L70.4,115.3z"/>
	<g>
		<path class="st1" d="M48.8,27.6c-2.6,0-4.8,2.1-4.8,4.7c0,6.2,0,6.4,0,12.2c-0.8,3.7-2.9,5-6.8,4.2h0c-0.3,0-0.3,0-0.6,0
			c-2.6,0-4.5,2.2-4.5,4.8c0,6.4,0,6.4,0,12.7c0,2.6,1.8,4.7,4.4,4.7c2.6,0,4.4-2.1,4.4-4.7c0-6.2,0-6.4,0-12.2
			c0.8-3.5,2.8-4.8,6.5-4.4c0.5,0.1,1,0.2,1.5,0.2c2.7,0,4.8-2.2,4.8-4.8V32.3C53.6,29.7,51.4,27.6,48.8,27.6z"/>
		<path class="st1" d="M72.9,92.1c2.6,0,4.8-2.1,4.8-4.7c0-6.2,0-6.4,0-12.2c0.8-3.7,2.9-5,6.8-4.2h0c0.3,0,0.3,0,0.6,0
			c2.6,0,4.5-2.2,4.5-4.8c0-6.4,0-6.4,0-12.7c0-2.6-1.8-4.7-4.4-4.7c-2.6,0-4.4,2.1-4.4,4.7c0,6.2,0,6.4,0,12.2
			c-0.8,3.5-2.8,4.8-6.5,4.4c-0.5-0.1-1-0.2-1.5-0.2c-2.7,0-4.8,2.2-4.8,4.8v12.6C68,90,70.3,92.1,72.9,92.1z"/>
		<path class="st1" d="M60.6,28.6c0.3,0,0.6,0,0.8-0.1v0c3.9-0.7,5.9,0.5,6.7,4.3c0,5.9,0,6.1,0,12.2c0,2.6,2.1,4.7,4.7,4.7
			c2.6,0,4.7-2.1,4.7-4.7c0-6.4,0-6.4,0-12.7c0-2.6-2.1-4.7-4.7-4.7c-0.3,0-0.6,0-0.8,0.1l0,0c-4,0.7-6-0.6-6.8-4.7v0
			c-0.4-2.2-2.3-3.9-4.6-3.9c-2.6,0-4.7,2.1-4.7,4.7C55.9,26.5,58,28.6,60.6,28.6z"/>
		<path class="st1" d="M60.6,91.1c-0.3,0-0.6,0-0.8,0.1h0c-3.9,0.7-5.9-0.5-6.7-4.3c0-5.9,0-6.1,0-12.2c0-2.6-2.1-4.7-4.7-4.7
			c-2.6,0-4.7,2.1-4.7,4.7c0,6.4,0,6.4,0,12.7c0,2.6,2.1,4.7,4.7,4.7c0.3,0,0.6,0,0.8-0.1l0,0c4-0.7,6,0.6,6.8,4.7h0
			c0.4,2.2,2.3,3.9,4.6,3.9c2.6,0,4.7-2.1,4.7-4.7C65.3,93.2,63.2,91.1,60.6,91.1z"/>
	</g>
</g>
</svg>
