<?xml version="1.0" encoding="UTF-8"?>
<svg id="basics" width="100%" height="100%" xmlns="http://www.w3.org/2000/svg"  xmlns:xlink="http://www.w3.org/1999/xlink">
	<defs>
		<pattern id="smallGrid" width="10" height="10" patternUnits="userSpaceOnUse">
			<path d="M 10 0 L 0 0 0 10" fill="none" stroke="gray" stroke-width="0.5"/>
		</pattern>
		<pattern id="grid" width="50" height="50" patternUnits="userSpaceOnUse">
			<rect width="100" height="100" fill="url(#smallGrid)"/>
			<path d="M 50 0 L 0 0 0 50" fill="none" stroke="gray" stroke-width="1"/>
		</pattern>
	</defs>

	<g id="workspace">
		<rect id="gridsystem"  x="160" width="10000" height="10000" fill="url(#grid)" />
	</g>


	<g id="toolbar" >
		<text id="component_bar" x="0" y="20">Component</text>
		<g id="line" transform="translate(30,40)">
			<rect fill="#ffffff" width="40" height="10" style="opacity:0" />
			<path fill="#ffffff" stroke="#000000" d="M 0 5 L 40 5" stroke-width="1" />
		</g>
		  <g  id="gnd" class="component" transform="translate(5,120)">
			<rect fill="#ffffff" width="40" height="40" style="opacity:0" />
			<path fill="#ffffff" stroke="#000000" d="M 20 20 L 35 20 L 20 35 L 5 20 L 20 20 L 20 0" stroke-width="1" />
			<circle class="term" visibility="hidden" cx="20" cy="0" r="5" fill="#999999" stroke="#3b4449" stroke-width="2" />
     		 	<text x="25" y="15" font-family="sans-serif" font-size="10px" fill="black"></text>
		</g>
		<g class="component" id="dc" transform="translate(5,60)">
			<rect fill="#ffffff" width="40" height="40" style="opacity:0" />
			<circle fill="#ffffff" cx="20" cy="20" r="10" stroke="#000000" stroke-width="1" />
			<path fill="none" stroke="#000000" d="M 20 0 L 20 10" stroke-width="1" />
			<path fill="none" stroke="#000000" d="M 20 30 L 20 40" stroke-width="1" />
			<path fill="none" stroke="#000000" d="M 20 12.5 L 20 17.5 L 20 15 L 17.5 15 L 22.5 15"></path>
			<path fill="none" stroke="#000000" d="M 17.5 25 L 22.5 25"></path>
			<circle class="term" visibility="hidden" cx="20" cy="0" r="5" fill="#999999" stroke="#3b4449" stroke-width="2" />
			<circle class="term" visibility="hidden" cx="20" cy="40" r="5" fill="#999999" stroke="#3b4449" stroke-width="2" />
      			<text x="25" y="20" font-family="sans-serif" font-size="10px" fill="black"></text>
		</g>
		<g class="component" id="resistor" transform="translate(55,60)">
			<rect fill="#ffffff" width="40" height="40" style="opacity:0" />
			<path fill="none" stroke="#000000" d="M20 0 L20 7.5" stroke-width="1" />
			<path fill="none" stroke="#000000" d="M20 32.5 L20 40" stroke-width="1" />
			<path fill="none" stroke="#000000" d="M20 7.5 L12 11 L30 14.5 L10 18 L30 21.5 L10 25 L28 28.5 L 20 32.5" stroke-width="2" />
			<circle class="term" visibility="hidden" cx="20" cy="0" r="5" fill="#999999" stroke="#3b4449" stroke-width="2" />
			<circle class="term" visibility="hidden" cx="20" cy="40" r="5" fill="#999999" stroke="#3b4449" stroke-width="2" />
      			<text x="25" y="20" font-family="sans-serif" font-size="10px" fill="black"></text>
		</g>
		<g class="component" id="NMOS" transform="translate(55,120)">
		<rect fill="#ffffff" width="40" height="40" style="opacity:0" />
			<line x1="20" y1="0" x2="20" y2="10"
				fill="none" stroke="rgb(0,0,0)" stroke-width="1"/>
			<line x1="10" y1="30" x2="20" y2="30"
				fill="none" stroke="rgb(0,0,0)" stroke-width="1"/>
			<line x1="10" y1="10" x2="10" y2="30"
				fill="none" stroke="rgb(0,0,0)" stroke-width="1"/>
			<line x1="10" y1="10" x2="20" y2="10"
				fill="none" stroke="rgb(0,0,0)" stroke-width="1"/>
			<line x1="20" y1="30" x2="20" y2="40"
				fill="none" stroke="rgb(0,0,0)" stroke-width="1"/>
			<line x1="10" y1="10" x2="10" y2="30"
				fill="none" stroke="rgb(0,0,0)" stroke-width="1"/>
			<line x1="0" y1="20" x2="10" y2="20"
				fill="none" stroke="rgb(0,0,0)" stroke-width="1"/>
			<line x1="10" y1="20" x2="40" y2="20"
				fill="none" stroke="rgb(0,0,0)" stroke-width="1"/>
			<circle class="term" visibility="hidden" cx="20" cy="0" r="5" fill="#999999" stroke="#3b4449" stroke-width="2" />
			<circle class="term" visibility="hidden" cx="0" cy="20" r="5" fill="#999999" stroke="#3b4449" stroke-width="2" />
			<circle class="term" visibility="hidden" cx="20" cy="40" r="5" fill="#999999" stroke="#3b4449" stroke-width="2" />
			<circle class="term" visibility="hidden" cx="40" cy="20" r="5" fill="#999999" stroke="#3b4449" stroke-width="2" />
			<text x="25" y="10" font-family="sans-serif" font-size="10px" fill="black"></text>
		</g>
		<g class="component" id="node" transform="translate(5,180)">
		<rect fill="#ffffff" width="40" height="40" style="opacity:0" />
			<line x1="0" y1="0" x2="40" y2="0" style="stroke:#000000;stroke-width:1"/>
			<line x1="40" y1="0" x2="40" y2="20" style="stroke:#000000;stroke-width:1"/>
			<line x1="0" y1="0" x2="0" y2="40" style="fill:rgb(192,0,0);stroke:#000000;stroke-width:1"/>
			<line x1="40" y1="20" x2="0" y2="40" style="stroke:#000000;stroke-width:1"/>
			<circle class="term" visibility="hidden" cx="0" cy="40" r="5" fill="#999999" stroke="#3b4449" stroke-width="2" />
		</g>
		<g id="output_netlist" transform="translate(55,180)">
			<rect fill="#ffffff" width="40" height="40" stroke="#000000" />
			<text x="0" y="20" font-family="sans-serif" font-size="10px" fill="black">netlist</text>
		</g>
		<g id="delete_line" transform="translate(5,240)">
			<rect fill="#ffffff" width="40" height="20" stroke="#000000" />
			<text x="0" y="20" font-family="sans-serif" font-size="10px" fill="black">delete line</text>
		</g>
		<g id="DC_sim" transform="translate(55,240)">
			<rect fill="#ffffff" width="40" height="40" stroke="#000000" />
			<text x="0" y="20" font-family="sans-serif" font-size="10px" fill="black">DC_sim</text>
		</g>
		<g id="zoomin" transform="translate(5,300)">
			<rect fill="#ffffff" width="40" height="40" stroke="#000000" />
			<text x="0" y="20" font-family="sans-serif" font-size="10px" fill="black">Zoom in</text>
		</g>
		<g id="zoomout" transform="translate(55,300)">
			<rect fill="#ffffff" width="40" height="40" stroke="#000000" />
			<text x="0" y="20" font-family="sans-serif" font-size="10px" fill="black">Zoom out</text>
		</g>
	</g>
</svg>
